<svg width="360" height="226" viewBox="0 0 360 226" fill="none" xmlns="http://www.w3.org/2000/svg">
<g filter="url(#filter0_d_344_832)">
<path d="M9.35809 136.252L-0.5 134.193C-15.2795 130.064 -25.5 116.597 -25.5 101.252V29.6125C-25.5 16.7277 -17.1684 5.3217 -4.89398 1.40286C-1.98222 0.473227 1.05593 0 4.11249 0H354.822C357.918 0 360.991 0.528916 363.909 1.56392C374.753 5.41103 382 15.6708 382 27.1778V103.65C382 117.66 372.881 130.04 359.5 134.193L340 138.683C320.099 145.963 301.324 156.012 284.23 168.534L270.5 178.591L253.971 191.418C238.236 203.628 219.425 211.795 199.783 215.094C186.492 217.326 172.718 217.289 159.45 214.92C141.4 211.698 124.355 204.298 109.674 193.313L90 178.591L64.6728 160.497C54.5981 153.3 43.6531 147.406 32.0986 142.957C24.7116 140.112 17.1067 137.87 9.35809 136.252Z" fill="url(#paint0_linear_344_832)"/>
</g>
<defs>
<filter id="filter0_d_344_832" x="-30.5" y="-1" width="417.5" height="226.733" filterUnits="userSpaceOnUse" color-interpolation-filters="sRGB">
<feFlood flood-opacity="0" result="BackgroundImageFix"/>
<feColorMatrix in="SourceAlpha" type="matrix" values="0 0 0 0 0 0 0 0 0 0 0 0 0 0 0 0 0 0 127 0" result="hardAlpha"/>
<feOffset dy="4"/>
<feGaussianBlur stdDeviation="2.5"/>
<feComposite in2="hardAlpha" operator="out"/>
<feColorMatrix type="matrix" values="0 0 0 0 0 0 0 0 0 0 0 0 0 0 0 0 0 0 0.3 0"/>
<feBlend mode="normal" in2="BackgroundImageFix" result="effect1_dropShadow_344_832"/>
<feBlend mode="normal" in="SourceGraphic" in2="effect1_dropShadow_344_832" result="shape"/>
</filter>
<linearGradient id="paint0_linear_344_832" x1="178.25" y1="0" x2="178.25" y2="233.466" gradientUnits="userSpaceOnUse">
<stop offset="0.104167" stop-color="#5A43FF"/>
<stop offset="0.380208" stop-color="#7876FF"/>
<stop offset="0.604167" stop-color="#7B87FF"/>
<stop offset="0.994792" stop-color="#E0E8FF"/>
</linearGradient>
</defs>
</svg>
